# xmcd
#
# Track frame offsets:
#	150
#	12149
#	23700
#	34849
#	46515
#	58254
#	70765
#	82034
#	93353
#	104543
#	115642
#	126759
#	138239
#	147673
#	159759
#	174384
#	185018
#	197316
#
# Disc length: 2804 seconds
# Revision: 1
# Processed by: cddbd v1.5.2PL0 Copyright (c) Steve Scherf et al.
# Submitted via: dBpowerAMP V12.0
#
DISCID=e80af212
DTITLE=Various Artist - The Excello Blues Story
DYEAR=2015
DGENRE=Blues
TTITLE0=Slim Harpo - Late Last Night
TTITLE1=Lazy Lester - Patrol Blues
TTITLE2=Arthur Gunter - My Heart's Always Lonesome
TTITLE3=Lightnin' Slim - It's Mighty Crazy
TTITLE4=Good Rockin' Sam (with Kid King's Combo) - Now Listen Baby
TTITLE5=Roscoe Shelton - Please Think It Over
TTITLE6=Earl Gaines - Can't Keep From Cryin'
TTITLE7=Slim Harpo - Rainin' In My Heart
TTITLE8=Lonesome Sundown - Lost Without Love
TTITLE9=Louis Brooks and His Hi-Toppers - Frisco
TTITLE10=Lightnin' Slim - Love Me Mama
TTITLE11=Larry Birdsong - Pleadin' For Love
TTITLE12=Silas Hogan - You're Too Late Baby
TTITLE13=Lightnin' Slim - My Little Angel Chile
TTITLE14=Louis Brooks and His Hi-Toppers - Chicken Shuffle
TTITLE15=Guitar Gable - Life Problem
TTITLE16=Lightnin' Slim - You're Old Enough To Understand
TTITLE17=Robert Garrett - Quit My Drinkin'
EXTD=
EXTT0=
EXTT1=
EXTT2=
EXTT3=
EXTT4=
EXTT5=
EXTT6=
EXTT7=
EXTT8=
EXTT9=
EXTT10=
EXTT11=
EXTT12=
EXTT13=
EXTT14=
EXTT15=
EXTT16=
EXTT17=
PLAYORDER=
